<svg xmlns="http://www.w3.org/2000/svg" xmlns:xlink="http://www.w3.org/1999/xlink" width="321" zoomAndPan="magnify" viewBox="0 0 240.75 141.750002" height="188" preserveAspectRatio="xMidYMid meet" version="1.0"><defs><g/><clipPath id="id1"><path d="M 5.144531 28.617188 L 109.320312 28.617188 L 109.320312 113.304688 L 5.144531 113.304688 Z M 5.144531 28.617188 " clip-rule="nonzero"/></clipPath></defs><g clip-path="url(#id1)"><path fill="#055c9d" d="M 32.574219 38.1875 C 28.941406 38.1875 25.988281 41.148438 25.988281 44.789062 C 25.988281 48.429688 28.941406 51.390625 32.574219 51.390625 C 36.203125 51.390625 39.160156 48.429688 39.160156 44.789062 C 39.160156 41.148438 36.203125 38.1875 32.574219 38.1875 Z M 32.574219 50.800781 C 29.265625 50.800781 26.574219 48.101562 26.574219 44.789062 C 26.574219 41.472656 29.265625 38.777344 32.574219 38.777344 C 35.878906 38.777344 38.570312 41.472656 38.570312 44.789062 C 38.570312 48.101562 35.878906 50.800781 32.574219 50.800781 Z M 89.40625 71.402344 C 89.410156 71.402344 89.410156 71.40625 89.410156 71.40625 C 89.425781 71.40625 89.441406 71.410156 89.460938 71.414062 C 89.441406 71.410156 89.425781 71.40625 89.40625 71.402344 Z M 78.332031 38.960938 C 78.328125 38.960938 78.328125 38.960938 78.328125 38.964844 C 78.359375 38.953125 78.390625 38.945312 78.421875 38.9375 C 78.390625 38.945312 78.363281 38.953125 78.332031 38.960938 Z M 77.324219 34.199219 C 77.273438 34.242188 77.21875 34.285156 77.167969 34.332031 C 77.226562 34.28125 77.285156 34.230469 77.347656 34.183594 C 77.339844 34.1875 77.332031 34.191406 77.324219 34.199219 Z M 76.851562 34.605469 C 76.894531 34.570312 76.9375 34.53125 76.980469 34.492188 C 76.980469 34.492188 76.980469 34.492188 76.980469 34.488281 C 76.9375 34.527344 76.898438 34.5625 76.851562 34.605469 Z M 58.160156 38.367188 C 58.148438 38.371094 58.136719 38.375 58.121094 38.382812 C 58.152344 38.371094 58.183594 38.355469 58.214844 38.347656 C 58.195312 38.351562 58.175781 38.359375 58.160156 38.367188 Z M 57.992188 38.433594 C 58.003906 38.429688 58.015625 38.425781 58.027344 38.417969 C 58.03125 38.417969 58.03125 38.417969 58.035156 38.414062 C 58.019531 38.421875 58.003906 38.425781 57.992188 38.433594 Z M 60.589844 41.242188 C 60.628906 41.265625 60.667969 41.28125 60.707031 41.300781 C 60.667969 41.28125 60.628906 41.261719 60.589844 41.242188 Z M 109.316406 67.023438 C 109.304688 66.9375 109.257812 66.859375 109.183594 66.8125 C 109.09375 66.753906 106.90625 65.390625 103.28125 65.632812 C 104.972656 63.148438 105.042969 61.042969 105.042969 60.949219 C 105.046875 60.859375 105.007812 60.773438 104.941406 60.71875 C 104.878906 60.660156 104.789062 60.632812 104.703125 60.648438 C 104.601562 60.664062 102.222656 61.082031 99.824219 63.53125 C 98.976562 64.398438 98.496094 65.242188 98.230469 65.980469 C 97.832031 65.214844 97.171875 64.367188 96.085938 63.558594 C 94.609375 62.464844 93.21875 61.914062 92.183594 61.628906 C 91.148438 61.351562 90.46875 61.34375 90.410156 61.34375 C 90.324219 61.34375 90.242188 61.382812 90.183594 61.449219 C 90.128906 61.515625 90.105469 61.605469 90.121094 61.691406 C 90.140625 61.792969 90.5625 64.066406 92.832031 66.441406 C 92.496094 66.472656 92.144531 66.523438 91.777344 66.597656 C 87.421875 67.5 85.316406 70 85.230469 70.105469 C 85.175781 70.167969 85.152344 70.253906 85.164062 70.332031 C 85.175781 70.414062 85.21875 70.488281 85.289062 70.535156 C 85.390625 70.605469 87.691406 72.175781 91.527344 72.175781 C 91.597656 72.175781 91.671875 72.171875 91.742188 72.171875 C 89.4375 75.183594 89.144531 77.769531 89.128906 77.890625 C 89.121094 77.980469 89.152344 78.066406 89.21875 78.128906 C 89.273438 78.183594 89.347656 78.214844 89.421875 78.214844 C 89.433594 78.214844 89.449219 78.214844 89.460938 78.214844 C 89.582031 78.195312 92.421875 77.816406 95.566406 75.105469 C 94.980469 76.082031 94.472656 77.085938 94.035156 78.089844 C 94.015625 78.113281 93.996094 78.140625 93.988281 78.167969 C 93.976562 78.195312 93.96875 78.226562 93.964844 78.253906 C 93.503906 79.332031 93.121094 80.414062 92.808594 81.46875 C 92.792969 81.488281 92.78125 81.507812 92.773438 81.53125 C 92.753906 81.574219 92.746094 81.617188 92.753906 81.660156 C 91.851562 84.746094 91.507812 87.59375 91.378906 89.5 C 91.371094 89.523438 91.367188 89.550781 91.367188 89.578125 C 91.367188 89.59375 91.367188 89.609375 91.371094 89.621094 C 91.28125 91.007812 91.3125 91.863281 91.3125 91.894531 L 91.3125 112.632812 L 84.898438 112.632812 L 84.898438 78.875 C 84.898438 78.847656 84.949219 77.429688 84.808594 75.144531 L 84.808594 75.128906 C 84.808594 75.109375 84.808594 75.089844 84.804688 75.070312 C 84.664062 72.855469 84.347656 69.84375 83.636719 66.480469 C 83.363281 65.179688 83.015625 63.773438 82.578125 62.300781 C 82.574219 62.273438 82.570312 62.246094 82.558594 62.222656 C 82.554688 62.214844 82.554688 62.210938 82.550781 62.203125 C 82.039062 60.496094 81.40625 58.695312 80.621094 56.875 C 80.617188 56.851562 80.613281 56.824219 80.601562 56.800781 C 80.589844 56.773438 80.574219 56.75 80.554688 56.726562 C 79.867188 55.144531 79.066406 53.550781 78.128906 51.984375 C 78.121094 51.964844 78.113281 51.945312 78.101562 51.925781 C 78.089844 51.894531 78.066406 51.871094 78.046875 51.851562 C 77.832031 51.496094 77.605469 51.140625 77.378906 50.785156 C 77.507812 50.910156 77.640625 51.039062 77.78125 51.167969 C 83.027344 55.949219 87.886719 56.597656 88.089844 56.625 C 88.101562 56.625 88.113281 56.625 88.125 56.625 C 88.203125 56.625 88.273438 56.597656 88.332031 56.542969 C 88.394531 56.476562 88.425781 56.390625 88.417969 56.300781 C 88.398438 56.109375 87.910156 51.816406 84.015625 46.875 C 84.257812 46.882812 84.5 46.886719 84.738281 46.886719 C 90.855469 46.886719 94.523438 44.390625 94.691406 44.277344 C 94.757812 44.226562 94.800781 44.15625 94.8125 44.074219 C 94.824219 43.992188 94.800781 43.910156 94.746094 43.847656 C 94.609375 43.675781 91.253906 39.691406 84.296875 38.253906 C 83.566406 38.105469 82.882812 38.015625 82.234375 37.972656 C 86.085938 34.082031 86.792969 30.296875 86.824219 30.128906 C 86.835938 30.042969 86.8125 29.957031 86.757812 29.890625 C 86.703125 29.824219 86.621094 29.785156 86.53125 29.785156 C 86.347656 29.785156 82.207031 29.828125 77.492188 33.324219 C 75.574219 34.742188 74.496094 36.246094 73.890625 37.546875 C 73.507812 36.289062 72.734375 34.796875 71.226562 33.253906 C 67.402344 29.34375 63.617188 28.6875 63.457031 28.660156 C 63.371094 28.648438 63.28125 28.671875 63.21875 28.730469 C 63.152344 28.785156 63.113281 28.871094 63.117188 28.957031 C 63.121094 29.113281 63.234375 32.628906 66.148438 36.726562 C 66.058594 36.71875 65.976562 36.710938 65.886719 36.703125 C 60.027344 36.28125 56.503906 38.480469 56.359375 38.574219 C 56.285156 38.621094 56.238281 38.699219 56.226562 38.78125 C 56.214844 38.867188 56.242188 38.957031 56.300781 39.019531 C 56.414062 39.148438 59.199219 42.132812 64.859375 43.28125 C 64.5 43.566406 64.144531 43.882812 63.789062 44.226562 C 58.679688 49.179688 57.976562 54.347656 57.949219 54.566406 C 57.9375 54.644531 57.964844 54.730469 58.015625 54.792969 C 58.070312 54.855469 58.144531 54.890625 58.230469 54.898438 C 58.246094 54.898438 58.308594 54.898438 58.402344 54.898438 C 59.273438 54.898438 63.167969 54.730469 67.695312 51.960938 C 67.03125 58.253906 68.921875 62.160156 69.007812 62.335938 C 69.050781 62.414062 69.125 62.472656 69.210938 62.492188 C 69.230469 62.496094 69.253906 62.5 69.273438 62.5 C 69.339844 62.5 69.40625 62.472656 69.457031 62.429688 C 69.617188 62.300781 73.371094 59.144531 75.246094 52.285156 C 75.28125 52.148438 75.316406 52.011719 75.347656 51.875 C 77.933594 56.511719 79.351562 61.703125 80.125 65.828125 C 81.367188 72.472656 81.257812 77.875 81.257812 77.925781 L 79.925781 112.632812 L 73.875 112.632812 L 73.875 75.351562 C 73.875 75.234375 73.808594 75.128906 73.699219 75.082031 L 54.378906 66.746094 L 54.203125 66.671875 C 54.113281 66.632812 54.007812 66.640625 53.925781 66.695312 C 53.84375 66.75 53.792969 66.84375 53.792969 66.941406 L 53.792969 67.472656 L 44.082031 73.503906 L 44.082031 79.472656 L 53.792969 74.027344 L 53.792969 74.703125 L 44.082031 80.148438 L 44.082031 84.058594 C 43.878906 84.039062 43.683594 84.019531 43.492188 84.003906 L 43.492188 73.175781 L 44.507812 72.546875 L 44.507812 68.300781 L 38.972656 65.976562 L 38.972656 112.632812 L 38.382812 112.632812 L 38.382812 65.730469 L 32.867188 63.417969 L 32.867188 112.632812 L 32.277344 112.632812 L 32.277344 63.171875 L 26.59375 60.785156 L 26.59375 112.632812 L 26.003906 112.632812 L 26.003906 60.539062 L 20.871094 58.390625 C 20.722656 58.328125 20.652344 58.152344 20.714844 58.003906 C 20.777344 57.851562 20.949219 57.78125 21.097656 57.84375 L 26.410156 60.074219 C 26.414062 60.074219 26.414062 60.074219 26.414062 60.074219 L 44.914062 67.832031 L 49.203125 69.628906 L 49.761719 69.28125 L 49.761719 67.496094 L 20.691406 54.953125 L 20.691406 55.238281 L 9.214844 62.363281 C 9.128906 62.414062 9.078125 62.511719 9.078125 62.613281 L 9.078125 112.632812 L 5.4375 112.632812 C 5.277344 112.632812 5.144531 112.765625 5.144531 112.925781 C 5.144531 113.089844 5.277344 113.222656 5.4375 113.222656 L 9.246094 113.222656 C 9.28125 113.238281 9.324219 113.253906 9.371094 113.253906 L 38.675781 113.253906 C 38.632812 113.253906 38.589844 113.238281 38.550781 113.222656 L 38.800781 113.222656 C 38.765625 113.238281 38.722656 113.253906 38.675781 113.253906 L 49.761719 113.253906 L 49.761719 113.25 L 73.582031 113.25 C 73.625 113.25 73.667969 113.238281 73.703125 113.222656 L 96.785156 113.222656 C 96.949219 113.222656 97.078125 113.089844 97.078125 112.929688 C 97.078125 112.765625 96.949219 112.632812 96.785156 112.632812 L 94.613281 112.632812 L 93.792969 91.3125 C 93.792969 91.203125 93.640625 82.269531 97.308594 75.460938 C 98.480469 79.730469 100.828125 81.707031 100.925781 81.789062 C 100.980469 81.832031 101.046875 81.859375 101.113281 81.859375 C 101.136719 81.859375 101.15625 81.855469 101.175781 81.851562 C 101.261719 81.832031 101.339844 81.773438 101.378906 81.695312 C 101.433594 81.585938 102.574219 79.226562 102.226562 75.421875 C 104.976562 77.042969 107.324219 77.144531 107.859375 77.144531 C 107.917969 77.144531 107.957031 77.140625 107.96875 77.140625 C 108.050781 77.140625 108.128906 77.101562 108.183594 77.039062 C 108.234375 76.976562 108.257812 76.894531 108.25 76.808594 C 108.230469 76.675781 107.789062 73.433594 104.59375 70.332031 C 104.429688 70.171875 104.261719 70.027344 104.097656 69.886719 C 107.492188 69.132812 109.171875 67.339844 109.242188 67.261719 C 109.300781 67.195312 109.328125 67.109375 109.316406 67.023438 Z M 20.691406 112.632812 L 9.664062 112.632812 L 9.664062 107.472656 L 20.691406 101.03125 Z M 20.691406 100.351562 L 9.664062 106.789062 L 9.664062 100.742188 L 20.691406 94.304688 Z M 20.691406 93.621094 L 9.664062 100.0625 L 9.664062 94.625 L 20.691406 88.1875 Z M 20.691406 87.503906 L 9.664062 93.945312 L 9.664062 88.78125 L 20.691406 82.339844 Z M 20.691406 81.65625 L 9.664062 88.097656 L 9.664062 82.859375 L 20.691406 76.417969 Z M 20.691406 75.738281 L 9.664062 82.175781 L 9.664062 76.914062 L 20.691406 70.472656 Z M 20.691406 69.789062 L 9.664062 76.230469 L 9.664062 70.992188 L 20.691406 64.550781 Z M 20.691406 63.871094 L 9.664062 70.308594 L 9.664062 65.304688 L 20.691406 58.636719 Z M 20.691406 57.949219 L 9.664062 64.613281 L 9.664062 62.777344 L 20.691406 55.929688 Z M 47.722656 112.660156 L 40.746094 112.660156 L 40.746094 105.304688 C 41.609375 105.335938 44.28125 105.496094 47.722656 106.332031 Z M 47.722656 105.726562 C 44.277344 104.902344 41.605469 104.742188 40.746094 104.710938 L 40.746094 100.40625 C 41.472656 100.414062 44.125 100.503906 47.722656 101.28125 Z M 47.722656 100.664062 C 44.148438 99.90625 41.488281 99.824219 40.746094 99.820312 L 40.746094 94.992188 C 41.472656 95 44.128906 95.085938 47.722656 95.867188 Z M 47.722656 95.246094 C 44.148438 94.492188 41.488281 94.410156 40.746094 94.402344 L 40.746094 89.648438 C 41.59375 89.660156 44.21875 89.769531 47.722656 90.527344 Z M 47.722656 89.90625 C 44.238281 89.171875 41.605469 89.070312 40.746094 89.054688 L 40.746094 84.476562 C 41.597656 84.46875 44.285156 84.515625 47.722656 85.1875 Z M 53.792969 81.457031 L 53.792969 81.460938 C 53.742188 81.492188 53.699219 81.539062 53.679688 81.597656 C 53.625 81.730469 53.679688 81.878906 53.792969 81.953125 L 53.792969 82.132812 L 48.960938 84.84375 C 48.664062 84.777344 48.375 84.714844 48.085938 84.65625 Z M 56.480469 112.660156 L 48.308594 112.660156 L 48.308594 106.480469 C 50.804688 107.125 53.652344 108.128906 56.480469 109.671875 Z M 56.480469 109.003906 C 53.640625 107.488281 50.796875 106.507812 48.308594 105.875 L 48.308594 101.414062 C 50.742188 101.976562 53.558594 102.855469 56.480469 104.222656 Z M 56.480469 103.570312 C 53.90625 102.378906 51.480469 101.589844 49.453125 101.070312 C 49.066406 100.96875 48.683594 100.878906 48.308594 100.792969 L 48.308594 96 C 50.742188 96.5625 53.558594 97.441406 56.480469 98.808594 Z M 56.480469 98.152344 C 53.90625 96.964844 51.480469 96.171875 49.453125 95.652344 C 49.066406 95.554688 48.683594 95.460938 48.308594 95.375 L 48.308594 90.660156 C 50.746094 91.222656 53.5625 92.097656 56.480469 93.457031 Z M 56.480469 92.800781 C 53.898438 91.613281 51.464844 90.824219 49.429688 90.308594 C 49.046875 90.207031 48.671875 90.121094 48.308594 90.039062 L 48.308594 85.304688 C 48.910156 85.429688 49.527344 85.574219 50.160156 85.742188 C 52.0625 86.242188 54.246094 86.984375 56.480469 88.085938 Z M 57.066406 112.660156 L 57.066406 110 C 58.390625 110.757812 59.699219 111.636719 60.960938 112.660156 Z M 63.019531 112.660156 L 61.886719 112.660156 C 60.335938 111.339844 58.707031 110.242188 57.066406 109.324219 L 57.066406 104.503906 C 59.042969 105.46875 61.054688 106.664062 63.019531 108.136719 Z M 63.019531 107.402344 C 61.027344 105.949219 59.011719 104.78125 57.066406 103.84375 L 57.066406 99.089844 C 59.042969 100.054688 61.054688 101.246094 63.019531 102.71875 Z M 63.019531 101.988281 C 61.027344 100.53125 59.011719 99.363281 57.066406 98.429688 L 57.066406 93.738281 C 59.042969 94.695312 61.054688 95.882812 63.019531 97.347656 Z M 63.019531 96.617188 C 61.03125 95.167969 59.015625 94.007812 57.066406 93.078125 L 57.066406 88.382812 C 59.085938 89.425781 61.128906 90.769531 63.019531 92.496094 Z M 66.488281 112.660156 L 63.605469 112.660156 L 63.605469 108.585938 C 64.585938 109.355469 65.550781 110.191406 66.488281 111.105469 Z M 66.488281 110.292969 C 65.546875 109.402344 64.582031 108.585938 63.605469 107.84375 L 63.605469 103.171875 C 64.585938 103.9375 65.550781 104.773438 66.488281 105.691406 Z M 66.488281 104.878906 C 65.546875 103.984375 64.582031 103.171875 63.605469 102.425781 L 63.605469 97.796875 C 64.585938 98.5625 65.550781 99.394531 66.488281 100.308594 Z M 66.488281 99.496094 C 65.546875 98.605469 64.582031 97.792969 63.605469 97.054688 L 63.605469 93.050781 C 64.628906 94.042969 65.601562 95.15625 66.488281 96.398438 Z M 73.289062 112.632812 L 67.078125 112.632812 L 67.078125 103.554688 L 73.289062 106.007812 Z M 73.289062 105.375 L 67.078125 102.921875 L 67.078125 96.304688 C 67.078125 96.246094 67.058594 96.183594 67.023438 96.132812 C 66.769531 95.777344 66.511719 95.433594 66.242188 95.097656 L 73.289062 97.878906 Z M 73.289062 97.246094 L 65.460938 94.15625 C 64.847656 93.453125 64.210938 92.792969 63.550781 92.1875 C 63.527344 92.152344 63.496094 92.125 63.460938 92.101562 C 60.582031 89.464844 57.359375 87.691406 54.378906 86.507812 L 54.378906 82.191406 L 73.289062 89.660156 Z M 73.289062 89.027344 L 54.378906 81.558594 L 54.378906 74.632812 L 73.289062 82.101562 Z M 73.289062 81.464844 L 54.378906 74 L 54.378906 67.390625 L 73.289062 75.546875 Z M 84.199219 74.835938 L 81.773438 74.835938 C 81.703125 73.457031 81.566406 71.691406 81.320312 69.699219 L 83.546875 69.191406 C 83.898438 71.34375 84.09375 73.277344 84.199219 74.835938 Z M 72.320312 43.117188 C 72.332031 43.109375 72.339844 43.101562 72.347656 43.097656 C 72.339844 43.105469 72.328125 43.113281 72.316406 43.125 C 72.320312 43.121094 72.320312 43.117188 72.320312 43.117188 Z M 70.429688 45.292969 C 70.421875 45.300781 70.417969 45.308594 70.414062 45.316406 C 70.417969 45.308594 70.421875 45.300781 70.425781 45.292969 Z M 69.515625 46.984375 L 69.519531 46.984375 C 69.5 47.023438 69.480469 47.070312 69.460938 47.109375 C 69.480469 47.070312 69.5 47.023438 69.515625 46.984375 Z M 79.625 38.675781 L 79.617188 38.675781 C 79.621094 38.675781 79.625 38.675781 79.628906 38.675781 C 79.628906 38.675781 79.625 38.675781 79.625 38.675781 Z M 74.855469 40.8125 C 74.847656 40.816406 74.835938 40.824219 74.828125 40.835938 C 74.828125 40.832031 74.828125 40.832031 74.828125 40.832031 C 74.835938 40.824219 74.84375 40.816406 74.855469 40.8125 Z M 78.121094 33.589844 C 78.132812 33.585938 78.144531 33.578125 78.152344 33.570312 C 78.144531 33.578125 78.132812 33.585938 78.121094 33.59375 C 78.105469 33.601562 78.089844 33.613281 78.074219 33.625 C 78.089844 33.613281 78.105469 33.601562 78.121094 33.589844 Z M 76.066406 35.386719 L 76.070312 35.386719 C 76.035156 35.421875 76 35.460938 75.964844 35.5 C 76 35.460938 76.03125 35.421875 76.066406 35.386719 Z M 62.316406 37.359375 L 62.3125 37.359375 C 62.289062 37.363281 62.261719 37.363281 62.238281 37.371094 C 62.261719 37.367188 62.289062 37.363281 62.316406 37.359375 Z M 60.996094 37.558594 L 60.992188 37.5625 C 60.976562 37.5625 60.960938 37.566406 60.945312 37.570312 C 60.960938 37.566406 60.980469 37.5625 60.996094 37.558594 Z M 57.535156 38.628906 C 57.515625 38.640625 57.492188 38.648438 57.46875 38.660156 C 57.476562 38.65625 57.492188 38.648438 57.5 38.644531 C 57.515625 38.640625 57.523438 38.636719 57.535156 38.628906 Z M 57.089844 38.839844 C 57.09375 38.839844 57.09375 38.839844 57.09375 38.839844 C 57.078125 38.847656 57.0625 38.855469 57.046875 38.863281 C 57.0625 38.855469 57.078125 38.847656 57.089844 38.839844 Z M 59.160156 40.472656 C 59.117188 40.445312 59.074219 40.417969 59.03125 40.394531 C 59.128906 40.453125 59.226562 40.511719 59.328125 40.570312 C 59.269531 40.539062 59.214844 40.507812 59.160156 40.472656 Z M 75.542969 51.03125 C 75.648438 50.492188 75.722656 49.980469 75.769531 49.488281 C 76.359375 50.296875 76.910156 51.125 77.421875 51.957031 L 76.367188 52.53125 C 76.105469 52.023438 75.828125 51.523438 75.542969 51.03125 Z M 76.632812 53.058594 L 77.726562 52.464844 C 78.566406 53.886719 79.296875 55.332031 79.933594 56.765625 L 78.472656 57.394531 C 77.949219 55.941406 77.34375 54.484375 76.632812 53.058594 Z M 80.109375 62.9375 C 79.730469 61.34375 79.257812 59.65625 78.667969 57.949219 L 80.167969 57.308594 C 80.871094 58.964844 81.449219 60.601562 81.925781 62.167969 Z M 81.242188 69.113281 C 81.097656 68.039062 80.921875 66.902344 80.703125 65.730469 C 80.570312 65.023438 80.417969 64.28125 80.246094 63.519531 L 82.09375 62.738281 C 82.488281 64.089844 82.804688 65.386719 83.058594 66.585938 C 83.207031 67.277344 83.332031 67.953125 83.445312 68.609375 Z M 84.308594 112.632812 L 80.511719 112.632812 L 80.738281 106.792969 L 84.308594 106.792969 Z M 84.308594 106.203125 L 80.757812 106.203125 L 81.078125 97.972656 L 84.269531 97.972656 C 84.28125 97.972656 84.296875 97.972656 84.308594 97.96875 Z M 84.308594 97.390625 C 84.296875 97.386719 84.28125 97.386719 84.269531 97.386719 L 81.097656 97.386719 L 81.390625 89.785156 L 84.308594 89.785156 Z M 84.308594 89.195312 L 81.414062 89.195312 L 81.714844 81.3125 L 84.308594 81.3125 Z M 84.308594 78.863281 L 84.308594 80.722656 L 81.738281 80.722656 L 81.84375 77.945312 C 81.84375 77.921875 81.863281 76.984375 81.800781 75.421875 L 84.238281 75.421875 C 84.359375 77.53125 84.3125 78.828125 84.308594 78.863281 Z M 91.949219 64.382812 C 91.960938 64.402344 91.976562 64.421875 91.988281 64.441406 C 91.980469 64.429688 91.96875 64.414062 91.960938 64.402344 C 91.957031 64.394531 91.953125 64.390625 91.949219 64.382812 Z M 92.367188 86.035156 L 93.53125 86.296875 C 93.390625 87.449219 93.308594 88.46875 93.261719 89.285156 L 91.984375 89.285156 C 92.050781 88.371094 92.167969 87.265625 92.367188 86.035156 Z M 93.492188 98.78125 L 93.664062 103.269531 L 91.898438 103.269531 L 91.898438 98.78125 Z M 91.898438 98.191406 L 91.898438 93.527344 L 93.289062 93.527344 L 93.46875 98.191406 Z M 91.945312 89.875 L 93.234375 89.875 C 93.195312 90.769531 93.207031 91.304688 93.207031 91.332031 L 93.269531 92.9375 L 91.898438 92.9375 L 91.898438 91.882812 C 91.898438 91.851562 91.875 91.101562 91.945312 89.875 Z M 94.023438 112.632812 L 91.898438 112.632812 L 91.898438 109.328125 L 93.898438 109.328125 Z M 93.875 108.738281 L 91.898438 108.738281 L 91.898438 103.859375 L 93.6875 103.859375 Z M 93.609375 85.714844 L 92.464844 85.453125 C 92.65625 84.386719 92.910156 83.238281 93.246094 82.050781 L 94.195312 82.453125 C 93.941406 83.597656 93.75 84.695312 93.609375 85.714844 Z M 94.328125 81.867188 L 93.414062 81.484375 C 93.695312 80.558594 94.027344 79.617188 94.421875 78.675781 L 95.160156 78.992188 C 94.828125 79.957031 94.554688 80.921875 94.328125 81.867188 Z M 95.351562 78.433594 L 94.65625 78.132812 C 95.285156 76.714844 96.058594 75.308594 97.007812 73.976562 C 97.035156 74.183594 97.066406 74.394531 97.109375 74.613281 C 96.402344 75.832031 95.828125 77.125 95.351562 78.433594 Z M 45.09375 68.546875 L 45.09375 72.179688 L 48.589844 70.011719 Z M 45.09375 68.546875 " fill-opacity="1" fill-rule="nonzero"/></g><path fill="#2f77ad" d="M 73.167969 40.113281 C 73.210938 39.683594 73.304688 39.136719 73.507812 38.515625 C 73.257812 37.199219 72.5625 35.460938 70.804688 33.667969 C 67.804688 30.597656 64.773438 29.597656 63.738281 29.328125 C 63.855469 30.378906 64.414062 33.460938 66.941406 36.816406 C 70.492188 37.339844 72.34375 39.0625 73.167969 40.113281 Z M 72.84375 40.671875 C 72.109375 39.679688 70.085938 37.59375 65.84375 37.289062 C 61.171875 36.957031 57.996094 38.367188 57.003906 38.886719 C 57.828125 39.644531 60.535156 41.839844 65.125 42.734375 C 65.25 42.761719 65.371094 42.78125 65.488281 42.800781 C 68.515625 40.628906 71.292969 40.5 72.84375 40.671875 Z M 73.726562 40.820312 C 73.792969 40.835938 73.851562 40.851562 73.902344 40.863281 C 73.914062 40.863281 73.925781 40.867188 73.9375 40.867188 C 74.515625 40.230469 76.9375 37.917969 81.425781 37.945312 C 84.765625 34.742188 85.867188 31.472656 86.15625 30.394531 C 85.039062 30.492188 81.597656 31.011719 77.839844 33.796875 C 73.953125 36.675781 73.714844 39.960938 73.726562 40.820312 Z M 74.449219 41.183594 C 76.042969 41.199219 79.59375 41.757812 83.175781 45.863281 C 83.292969 45.996094 83.402344 46.128906 83.515625 46.261719 C 89.191406 46.570312 93.023438 44.589844 94.066406 43.972656 C 93.207031 43.074219 89.929688 40.019531 84.175781 38.832031 C 78.417969 37.644531 75.234375 40.390625 74.449219 41.183594 Z M 58.589844 54.304688 C 59.722656 54.265625 63.535156 53.925781 67.785156 51.207031 C 67.808594 51.042969 67.828125 50.875 67.855469 50.707031 C 68.84375 44.277344 72.5 42.128906 73.316406 41.726562 C 73.332031 41.582031 73.347656 41.496094 73.351562 41.472656 C 73.359375 41.429688 73.378906 41.394531 73.402344 41.359375 C 73.050781 41.296875 72.539062 41.226562 71.90625 41.226562 C 70.042969 41.226562 67.136719 41.800781 64.195312 44.652344 C 59.964844 48.753906 58.835938 53.085938 58.589844 54.304688 Z M 82.730469 46.25 C 78.800781 41.746094 74.851562 41.726562 73.902344 41.796875 C 73.902344 41.808594 73.902344 41.824219 73.898438 41.835938 C 74.316406 42.335938 75.832031 44.40625 75.839844 48.078125 C 76.429688 48.9375 77.191406 49.832031 78.175781 50.730469 C 82.441406 54.613281 86.515625 55.710938 87.769531 55.96875 C 87.535156 54.707031 86.523438 50.601562 82.730469 46.25 Z M 73.507812 42.292969 C 72.671875 42.742188 69.34375 44.878906 68.4375 50.796875 C 67.558594 56.503906 68.902344 60.515625 69.378906 61.707031 C 70.296875 60.816406 73.15625 57.699219 74.675781 52.132812 C 76.257812 46.355469 74.089844 43.042969 73.507812 42.292969 Z M 98.777344 67.597656 C 99.359375 66.933594 100.5 66.019531 102.496094 65.714844 C 103.910156 63.824219 104.308594 62.078125 104.414062 61.324219 C 103.671875 61.542969 101.949219 62.199219 100.242188 63.945312 C 99.179688 65.027344 98.753906 66.0625 98.597656 66.851562 C 98.6875 67.125 98.742188 67.378906 98.777344 67.597656 Z M 103.25 66.222656 C 100.882812 66.394531 99.671875 67.433594 99.140625 68.078125 C 100.144531 68.011719 101.75 68.179688 103.484375 69.410156 C 103.546875 69.398438 103.605469 69.390625 103.664062 69.378906 C 106.289062 68.867188 107.910156 67.664062 108.527344 67.128906 C 107.792969 66.773438 105.914062 66.03125 103.25 66.222656 Z M 98.242188 68.191406 C 98.234375 67.550781 97.996094 65.710938 95.734375 64.035156 C 93.578125 62.4375 91.605469 62.054688 90.796875 61.960938 C 91.027344 62.734375 91.738281 64.585938 93.625 66.40625 C 96.285156 66.40625 97.785156 67.714844 98.242188 68.191406 Z M 92.410156 71.355469 C 94.476562 68.984375 96.542969 68.496094 97.644531 68.425781 C 96.96875 67.808594 95.109375 66.515625 91.894531 67.175781 C 88.539062 67.871094 86.566406 69.582031 85.917969 70.230469 C 86.695312 70.664062 88.96875 71.730469 92.230469 71.566406 C 92.289062 71.496094 92.347656 71.425781 92.410156 71.355469 Z M 104.1875 70.757812 C 101.859375 68.5 99.625 68.5625 98.699219 68.71875 C 98.703125 68.734375 98.707031 68.757812 98.710938 68.789062 C 99.324219 69.109375 101.503906 70.511719 102.105469 74.417969 C 102.117188 74.503906 102.128906 74.589844 102.140625 74.671875 C 104.578125 76.21875 106.777344 76.5 107.601562 76.546875 C 107.398438 75.652344 106.640625 73.136719 104.1875 70.757812 Z M 98.046875 69.003906 C 98.015625 69.003906 97.980469 69.003906 97.945312 69.003906 C 97.082031 69.003906 94.988281 69.292969 92.851562 71.742188 C 90.664062 74.253906 89.980469 76.628906 89.785156 77.550781 C 90.699219 77.335938 93.058594 76.605469 95.519531 74.363281 C 96.113281 73.824219 96.574219 73.289062 96.929688 72.777344 C 96.941406 70.742188 97.691406 69.484375 98.046875 69.003906 Z M 101.523438 74.503906 C 100.992188 71.035156 99.121094 69.703125 98.515625 69.355469 C 98.097656 69.917969 96.9375 71.875 97.871094 75.285156 C 98.753906 78.507812 100.347656 80.386719 101.007812 81.054688 C 101.335938 80.175781 102.027344 77.800781 101.523438 74.503906 Z M 101.523438 74.503906 " fill-opacity="1" fill-rule="nonzero"/><g fill="#2f77ad" fill-opacity="1"><g transform="translate(116.401513, 70.484374)"><g><path d="M 1.09375 -5.1875 L 1.890625 -5.1875 C 2.078125 -3.894531 2.585938 -2.878906 3.421875 -2.140625 C 4.265625 -1.398438 5.304688 -1.03125 6.546875 -1.03125 C 7.046875 -1.03125 7.503906 -1.09375 7.921875 -1.21875 C 8.335938 -1.34375 8.695312 -1.515625 9 -1.734375 C 9.300781 -1.960938 9.53125 -2.226562 9.6875 -2.53125 C 9.851562 -2.832031 9.9375 -3.175781 9.9375 -3.5625 C 9.9375 -3.882812 9.882812 -4.160156 9.78125 -4.390625 C 9.675781 -4.628906 9.484375 -4.859375 9.203125 -5.078125 C 8.921875 -5.304688 8.53125 -5.535156 8.03125 -5.765625 C 7.539062 -5.992188 6.898438 -6.257812 6.109375 -6.5625 C 4.523438 -7.164062 3.351562 -7.867188 2.59375 -8.671875 C 1.84375 -9.484375 1.46875 -10.4375 1.46875 -11.53125 C 1.46875 -12.175781 1.585938 -12.757812 1.828125 -13.28125 C 2.066406 -13.8125 2.40625 -14.265625 2.84375 -14.640625 C 3.289062 -15.023438 3.820312 -15.320312 4.4375 -15.53125 C 5.050781 -15.738281 5.734375 -15.84375 6.484375 -15.84375 C 7.171875 -15.84375 7.816406 -15.734375 8.421875 -15.515625 C 9.035156 -15.296875 9.640625 -14.972656 10.234375 -14.546875 L 10.609375 -15.5625 L 11.09375 -15.5625 L 11.3125 -11.171875 L 10.515625 -11.171875 C 10.191406 -12.285156 9.6875 -13.132812 9 -13.71875 C 8.3125 -14.3125 7.515625 -14.609375 6.609375 -14.609375 C 5.765625 -14.609375 5.082031 -14.398438 4.5625 -13.984375 C 4.039062 -13.566406 3.78125 -13.035156 3.78125 -12.390625 C 3.78125 -12.109375 3.828125 -11.851562 3.921875 -11.625 C 4.015625 -11.40625 4.1875 -11.191406 4.4375 -10.984375 C 4.695312 -10.785156 5.050781 -10.582031 5.5 -10.375 C 5.945312 -10.164062 6.523438 -9.929688 7.234375 -9.671875 C 8.179688 -9.304688 8.988281 -8.9375 9.65625 -8.5625 C 10.332031 -8.1875 10.878906 -7.785156 11.296875 -7.359375 C 11.722656 -6.929688 12.035156 -6.476562 12.234375 -6 C 12.441406 -5.53125 12.546875 -5.015625 12.546875 -4.453125 C 12.546875 -3.753906 12.394531 -3.117188 12.09375 -2.546875 C 11.800781 -1.984375 11.390625 -1.5 10.859375 -1.09375 C 10.328125 -0.6875 9.691406 -0.367188 8.953125 -0.140625 C 8.210938 0.0859375 7.394531 0.203125 6.5 0.203125 C 5.6875 0.203125 4.953125 0.09375 4.296875 -0.125 C 3.648438 -0.351562 2.984375 -0.71875 2.296875 -1.21875 L 1.890625 0 L 1.40625 0 Z M 1.09375 -5.1875 "/></g></g></g><g fill="#2f77ad" fill-opacity="1"><g transform="translate(130.615581, 70.484374)"><g><path d="M 15.375 -6.296875 C 15.375 -5.148438 15.25 -4.164062 15 -3.34375 C 14.75 -2.519531 14.359375 -1.84375 13.828125 -1.3125 C 13.304688 -0.789062 12.628906 -0.40625 11.796875 -0.15625 C 10.960938 0.0820312 9.960938 0.203125 8.796875 0.203125 C 6.617188 0.203125 5.023438 -0.253906 4.015625 -1.171875 C 3.003906 -2.085938 2.5 -3.546875 2.5 -5.546875 L 2.5 -11.109375 C 2.5 -11.640625 2.488281 -12.082031 2.46875 -12.4375 C 2.457031 -12.800781 2.4375 -13.101562 2.40625 -13.34375 C 2.382812 -13.59375 2.347656 -13.789062 2.296875 -13.9375 C 2.253906 -14.09375 2.203125 -14.226562 2.140625 -14.34375 C 2.015625 -14.53125 1.835938 -14.65625 1.609375 -14.71875 C 1.378906 -14.789062 1.023438 -14.828125 0.546875 -14.828125 L 0.546875 -15.640625 L 7.84375 -15.640625 L 7.84375 -14.828125 C 7.269531 -14.828125 6.847656 -14.796875 6.578125 -14.734375 C 6.304688 -14.671875 6.097656 -14.550781 5.953125 -14.375 C 5.859375 -14.269531 5.78125 -14.140625 5.71875 -13.984375 C 5.65625 -13.828125 5.609375 -13.625 5.578125 -13.375 C 5.546875 -13.125 5.519531 -12.816406 5.5 -12.453125 C 5.488281 -12.085938 5.484375 -11.640625 5.484375 -11.109375 L 5.484375 -5.796875 C 5.484375 -4.242188 5.8125 -3.097656 6.46875 -2.359375 C 7.125 -1.628906 8.132812 -1.265625 9.5 -1.265625 C 12.289062 -1.265625 13.6875 -2.8125 13.6875 -5.90625 L 13.6875 -10.609375 C 13.6875 -11.171875 13.675781 -11.65625 13.65625 -12.0625 C 13.632812 -12.46875 13.597656 -12.8125 13.546875 -13.09375 C 13.503906 -13.382812 13.445312 -13.625 13.375 -13.8125 C 13.300781 -14 13.210938 -14.15625 13.109375 -14.28125 C 12.910156 -14.46875 12.660156 -14.601562 12.359375 -14.6875 C 12.066406 -14.78125 11.65625 -14.828125 11.125 -14.828125 L 11.125 -15.640625 L 17.71875 -15.640625 L 17.71875 -14.828125 C 17.21875 -14.828125 16.832031 -14.789062 16.5625 -14.71875 C 16.289062 -14.644531 16.078125 -14.515625 15.921875 -14.328125 C 15.816406 -14.203125 15.726562 -14.039062 15.65625 -13.84375 C 15.59375 -13.644531 15.539062 -13.398438 15.5 -13.109375 C 15.457031 -12.816406 15.425781 -12.46875 15.40625 -12.0625 C 15.382812 -11.65625 15.375 -11.171875 15.375 -10.609375 Z M 15.375 -6.296875 "/></g></g></g><g fill="#2f77ad" fill-opacity="1"><g transform="translate(149.235944, 70.484374)"><g><path d="M 13.609375 0.203125 L 4.609375 -12.609375 L 4.53125 -12.609375 L 4.53125 -3.875 C 4.53125 -3.195312 4.550781 -2.660156 4.59375 -2.265625 C 4.644531 -1.878906 4.75 -1.578125 4.90625 -1.359375 C 5.0625 -1.140625 5.273438 -0.992188 5.546875 -0.921875 C 5.828125 -0.859375 6.191406 -0.820312 6.640625 -0.8125 L 6.640625 0 L 0.609375 0 L 0.609375 -0.8125 C 1.109375 -0.820312 1.507812 -0.863281 1.8125 -0.9375 C 2.125 -1.019531 2.363281 -1.160156 2.53125 -1.359375 C 2.695312 -1.566406 2.804688 -1.851562 2.859375 -2.21875 C 2.921875 -2.59375 2.953125 -3.097656 2.953125 -3.734375 L 2.953125 -11.90625 C 2.953125 -12.46875 2.921875 -12.9375 2.859375 -13.3125 C 2.804688 -13.6875 2.707031 -13.984375 2.5625 -14.203125 C 2.414062 -14.421875 2.203125 -14.570312 1.921875 -14.65625 C 1.640625 -14.738281 1.269531 -14.796875 0.8125 -14.828125 L 0.8125 -15.640625 L 6.484375 -15.640625 L 14.671875 -3.90625 L 14.75 -3.90625 L 14.75 -11.765625 C 14.75 -12.421875 14.722656 -12.945312 14.671875 -13.34375 C 14.628906 -13.75 14.53125 -14.0625 14.375 -14.28125 C 14.21875 -14.5 14 -14.640625 13.71875 -14.703125 C 13.445312 -14.773438 13.085938 -14.816406 12.640625 -14.828125 L 12.640625 -15.640625 L 18.671875 -15.640625 L 18.671875 -14.828125 C 18.171875 -14.816406 17.765625 -14.769531 17.453125 -14.6875 C 17.148438 -14.613281 16.914062 -14.472656 16.75 -14.265625 C 16.582031 -14.066406 16.46875 -13.78125 16.40625 -13.40625 C 16.351562 -13.03125 16.328125 -12.53125 16.328125 -11.90625 L 16.328125 0.203125 Z M 13.609375 0.203125 "/></g></g></g><g fill="#2f77ad" fill-opacity="1"><g transform="translate(169.074645, 70.484374)"><g><path d="M 13.609375 0.203125 L 4.609375 -12.609375 L 4.53125 -12.609375 L 4.53125 -3.875 C 4.53125 -3.195312 4.550781 -2.660156 4.59375 -2.265625 C 4.644531 -1.878906 4.75 -1.578125 4.90625 -1.359375 C 5.0625 -1.140625 5.273438 -0.992188 5.546875 -0.921875 C 5.828125 -0.859375 6.191406 -0.820312 6.640625 -0.8125 L 6.640625 0 L 0.609375 0 L 0.609375 -0.8125 C 1.109375 -0.820312 1.507812 -0.863281 1.8125 -0.9375 C 2.125 -1.019531 2.363281 -1.160156 2.53125 -1.359375 C 2.695312 -1.566406 2.804688 -1.851562 2.859375 -2.21875 C 2.921875 -2.59375 2.953125 -3.097656 2.953125 -3.734375 L 2.953125 -11.90625 C 2.953125 -12.46875 2.921875 -12.9375 2.859375 -13.3125 C 2.804688 -13.6875 2.707031 -13.984375 2.5625 -14.203125 C 2.414062 -14.421875 2.203125 -14.570312 1.921875 -14.65625 C 1.640625 -14.738281 1.269531 -14.796875 0.8125 -14.828125 L 0.8125 -15.640625 L 6.484375 -15.640625 L 14.671875 -3.90625 L 14.75 -3.90625 L 14.75 -11.765625 C 14.75 -12.421875 14.722656 -12.945312 14.671875 -13.34375 C 14.628906 -13.75 14.53125 -14.0625 14.375 -14.28125 C 14.21875 -14.5 14 -14.640625 13.71875 -14.703125 C 13.445312 -14.773438 13.085938 -14.816406 12.640625 -14.828125 L 12.640625 -15.640625 L 18.671875 -15.640625 L 18.671875 -14.828125 C 18.171875 -14.816406 17.765625 -14.769531 17.453125 -14.6875 C 17.148438 -14.613281 16.914062 -14.472656 16.75 -14.265625 C 16.582031 -14.066406 16.46875 -13.78125 16.40625 -13.40625 C 16.351562 -13.03125 16.328125 -12.53125 16.328125 -11.90625 L 16.328125 0.203125 Z M 13.609375 0.203125 "/></g></g></g><g fill="#2f77ad" fill-opacity="1"><g transform="translate(188.913344, 70.484374)"><g><path d="M 2.046875 -13.078125 C 1.847656 -13.429688 1.660156 -13.722656 1.484375 -13.953125 C 1.316406 -14.179688 1.144531 -14.359375 0.96875 -14.484375 C 0.800781 -14.617188 0.613281 -14.707031 0.40625 -14.75 C 0.207031 -14.800781 -0.0195312 -14.828125 -0.28125 -14.828125 L -0.28125 -15.640625 L 6.546875 -15.640625 L 6.546875 -14.828125 C 5.972656 -14.828125 5.570312 -14.769531 5.34375 -14.65625 C 5.113281 -14.550781 5 -14.390625 5 -14.171875 C 5 -14.035156 5.035156 -13.875 5.109375 -13.6875 C 5.191406 -13.5 5.320312 -13.242188 5.5 -12.921875 L 8.40625 -7.375 L 8.484375 -7.375 L 11.046875 -11.640625 C 11.492188 -12.398438 11.804688 -12.960938 11.984375 -13.328125 C 12.160156 -13.703125 12.25 -14 12.25 -14.21875 C 12.25 -14.445312 12.144531 -14.601562 11.9375 -14.6875 C 11.726562 -14.78125 11.335938 -14.828125 10.765625 -14.828125 L 10.765625 -15.640625 L 15.859375 -15.640625 L 15.859375 -14.828125 C 15.566406 -14.828125 15.296875 -14.78125 15.046875 -14.6875 C 14.804688 -14.59375 14.550781 -14.40625 14.28125 -14.125 C 14.019531 -13.851562 13.722656 -13.46875 13.390625 -12.96875 C 13.066406 -12.476562 12.671875 -11.832031 12.203125 -11.03125 L 9.25 -5.953125 L 9.25 -3.875 C 9.25 -3.195312 9.273438 -2.65625 9.328125 -2.25 C 9.390625 -1.84375 9.5 -1.535156 9.65625 -1.328125 C 9.8125 -1.117188 10.023438 -0.976562 10.296875 -0.90625 C 10.566406 -0.84375 10.921875 -0.8125 11.359375 -0.8125 L 11.359375 0 L 4.125 0 L 4.125 -0.8125 C 4.539062 -0.8125 4.890625 -0.84375 5.171875 -0.90625 C 5.453125 -0.976562 5.671875 -1.113281 5.828125 -1.3125 C 5.992188 -1.519531 6.101562 -1.816406 6.15625 -2.203125 C 6.21875 -2.585938 6.25 -3.097656 6.25 -3.734375 L 6.25 -5.609375 Z M 2.046875 -13.078125 "/></g></g></g><g fill="#000000" fill-opacity="1"><g transform="translate(205.095061, 70.484374)"><g/></g></g><g fill="#055c9d" fill-opacity="1"><g transform="translate(116.401513, 96.715368)"><g><path d="M 14.359375 -15.640625 L 15.359375 -15.640625 L 14.953125 -10.5 L 14.140625 -10.5 C 13.859375 -11.75 13.304688 -12.734375 12.484375 -13.453125 C 11.660156 -14.171875 10.664062 -14.53125 9.5 -14.53125 C 8.707031 -14.53125 8 -14.367188 7.375 -14.046875 C 6.75 -13.722656 6.222656 -13.265625 5.796875 -12.671875 C 5.367188 -12.085938 5.039062 -11.375 4.8125 -10.53125 C 4.59375 -9.6875 4.484375 -8.734375 4.484375 -7.671875 C 4.484375 -5.578125 4.910156 -3.960938 5.765625 -2.828125 C 6.628906 -1.703125 7.90625 -1.140625 9.59375 -1.140625 C 10.945312 -1.140625 12.066406 -1.503906 12.953125 -2.234375 C 13.835938 -2.960938 14.46875 -4.050781 14.84375 -5.5 L 15.75 -5.5 L 15.75 0 L 14.78125 0 L 14.5 -1.609375 C 13.007812 -0.398438 11.203125 0.203125 9.078125 0.203125 C 7.847656 0.203125 6.726562 0.0195312 5.71875 -0.34375 C 4.71875 -0.707031 3.863281 -1.222656 3.15625 -1.890625 C 2.457031 -2.566406 1.914062 -3.382812 1.53125 -4.34375 C 1.144531 -5.3125 0.953125 -6.382812 0.953125 -7.5625 C 0.953125 -8.789062 1.15625 -9.910156 1.5625 -10.921875 C 1.96875 -11.941406 2.539062 -12.816406 3.28125 -13.546875 C 4.019531 -14.273438 4.898438 -14.835938 5.921875 -15.234375 C 6.941406 -15.640625 8.078125 -15.84375 9.328125 -15.84375 C 10.148438 -15.84375 10.921875 -15.726562 11.640625 -15.5 C 12.359375 -15.269531 13.132812 -14.894531 13.96875 -14.375 Z M 14.359375 -15.640625 "/></g></g></g><g fill="#055c9d" fill-opacity="1"><g transform="translate(133.864471, 96.715368)"><g><path d="M 9.59375 -15.84375 C 10.8125 -15.84375 11.945312 -15.628906 13 -15.203125 C 14.050781 -14.785156 14.96875 -14.210938 15.75 -13.484375 C 16.53125 -12.753906 17.144531 -11.894531 17.59375 -10.90625 C 18.039062 -9.914062 18.265625 -8.847656 18.265625 -7.703125 C 18.265625 -6.597656 18.035156 -5.566406 17.578125 -4.609375 C 17.128906 -3.648438 16.515625 -2.8125 15.734375 -2.09375 C 14.953125 -1.382812 14.03125 -0.820312 12.96875 -0.40625 C 11.914062 0 10.789062 0.203125 9.59375 0.203125 C 8.382812 0.203125 7.25 0 6.1875 -0.40625 C 5.132812 -0.820312 4.210938 -1.382812 3.421875 -2.09375 C 2.640625 -2.8125 2.023438 -3.648438 1.578125 -4.609375 C 1.140625 -5.566406 0.921875 -6.597656 0.921875 -7.703125 C 0.921875 -8.847656 1.140625 -9.914062 1.578125 -10.90625 C 2.023438 -11.894531 2.640625 -12.753906 3.421875 -13.484375 C 4.203125 -14.210938 5.117188 -14.785156 6.171875 -15.203125 C 7.234375 -15.628906 8.375 -15.84375 9.59375 -15.84375 Z M 9.59375 -1.125 C 10.375 -1.125 11.082031 -1.273438 11.71875 -1.578125 C 12.351562 -1.878906 12.894531 -2.3125 13.34375 -2.875 C 13.789062 -3.4375 14.132812 -4.117188 14.375 -4.921875 C 14.613281 -5.734375 14.734375 -6.640625 14.734375 -7.640625 C 14.734375 -8.691406 14.613281 -9.640625 14.375 -10.484375 C 14.132812 -11.335938 13.789062 -12.0625 13.34375 -12.65625 C 12.894531 -13.257812 12.351562 -13.722656 11.71875 -14.046875 C 11.082031 -14.367188 10.375 -14.53125 9.59375 -14.53125 C 8.789062 -14.53125 8.070312 -14.367188 7.4375 -14.046875 C 6.8125 -13.722656 6.273438 -13.257812 5.828125 -12.65625 C 5.378906 -12.0625 5.035156 -11.335938 4.796875 -10.484375 C 4.566406 -9.640625 4.453125 -8.691406 4.453125 -7.640625 C 4.453125 -6.640625 4.566406 -5.734375 4.796875 -4.921875 C 5.035156 -4.117188 5.378906 -3.4375 5.828125 -2.875 C 6.273438 -2.3125 6.8125 -1.878906 7.4375 -1.578125 C 8.070312 -1.273438 8.789062 -1.125 9.59375 -1.125 Z M 9.59375 -1.125 "/></g></g></g><g fill="#055c9d" fill-opacity="1"><g transform="translate(153.764089, 96.715368)"><g><path d="M 10.171875 -4.734375 L 4.421875 -4.734375 C 3.785156 -3.296875 3.46875 -2.300781 3.46875 -1.75 C 3.46875 -1.34375 3.617188 -1.082031 3.921875 -0.96875 C 4.234375 -0.863281 4.691406 -0.8125 5.296875 -0.8125 L 5.296875 0 L -0.265625 0 L -0.265625 -0.8125 C 0.0546875 -0.851562 0.335938 -0.90625 0.578125 -0.96875 C 0.816406 -1.039062 1.023438 -1.132812 1.203125 -1.25 C 1.390625 -1.375 1.550781 -1.535156 1.6875 -1.734375 C 1.820312 -1.929688 1.953125 -2.171875 2.078125 -2.453125 L 7.421875 -15.84375 L 8.921875 -15.84375 L 13.765625 -3.984375 C 14.054688 -3.296875 14.296875 -2.753906 14.484375 -2.359375 C 14.679688 -1.960938 14.890625 -1.660156 15.109375 -1.453125 C 15.335938 -1.242188 15.597656 -1.097656 15.890625 -1.015625 C 16.179688 -0.929688 16.554688 -0.867188 17.015625 -0.828125 L 17.015625 0 L 9.34375 0 L 9.34375 -0.828125 C 9.988281 -0.859375 10.453125 -0.925781 10.734375 -1.03125 C 11.023438 -1.144531 11.171875 -1.363281 11.171875 -1.6875 C 11.171875 -1.875 11.125 -2.113281 11.03125 -2.40625 C 10.9375 -2.707031 10.804688 -3.078125 10.640625 -3.515625 Z M 4.890625 -5.953125 L 9.734375 -5.953125 L 7.390625 -12.109375 L 7.3125 -12.109375 Z M 4.890625 -5.953125 "/></g></g></g><g fill="#055c9d" fill-opacity="1"><g transform="translate(170.942765, 96.715368)"><g><path d="M 1.09375 -5.1875 L 1.890625 -5.1875 C 2.078125 -3.894531 2.585938 -2.878906 3.421875 -2.140625 C 4.265625 -1.398438 5.304688 -1.03125 6.546875 -1.03125 C 7.046875 -1.03125 7.503906 -1.09375 7.921875 -1.21875 C 8.335938 -1.34375 8.695312 -1.515625 9 -1.734375 C 9.300781 -1.960938 9.53125 -2.226562 9.6875 -2.53125 C 9.851562 -2.832031 9.9375 -3.175781 9.9375 -3.5625 C 9.9375 -3.882812 9.882812 -4.160156 9.78125 -4.390625 C 9.675781 -4.628906 9.484375 -4.859375 9.203125 -5.078125 C 8.921875 -5.304688 8.53125 -5.535156 8.03125 -5.765625 C 7.539062 -5.992188 6.898438 -6.257812 6.109375 -6.5625 C 4.523438 -7.164062 3.351562 -7.867188 2.59375 -8.671875 C 1.84375 -9.484375 1.46875 -10.4375 1.46875 -11.53125 C 1.46875 -12.175781 1.585938 -12.757812 1.828125 -13.28125 C 2.066406 -13.8125 2.40625 -14.265625 2.84375 -14.640625 C 3.289062 -15.023438 3.820312 -15.320312 4.4375 -15.53125 C 5.050781 -15.738281 5.734375 -15.84375 6.484375 -15.84375 C 7.171875 -15.84375 7.816406 -15.734375 8.421875 -15.515625 C 9.035156 -15.296875 9.640625 -14.972656 10.234375 -14.546875 L 10.609375 -15.5625 L 11.09375 -15.5625 L 11.3125 -11.171875 L 10.515625 -11.171875 C 10.191406 -12.285156 9.6875 -13.132812 9 -13.71875 C 8.3125 -14.3125 7.515625 -14.609375 6.609375 -14.609375 C 5.765625 -14.609375 5.082031 -14.398438 4.5625 -13.984375 C 4.039062 -13.566406 3.78125 -13.035156 3.78125 -12.390625 C 3.78125 -12.109375 3.828125 -11.851562 3.921875 -11.625 C 4.015625 -11.40625 4.1875 -11.191406 4.4375 -10.984375 C 4.695312 -10.785156 5.050781 -10.582031 5.5 -10.375 C 5.945312 -10.164062 6.523438 -9.929688 7.234375 -9.671875 C 8.179688 -9.304688 8.988281 -8.9375 9.65625 -8.5625 C 10.332031 -8.1875 10.878906 -7.785156 11.296875 -7.359375 C 11.722656 -6.929688 12.035156 -6.476562 12.234375 -6 C 12.441406 -5.53125 12.546875 -5.015625 12.546875 -4.453125 C 12.546875 -3.753906 12.394531 -3.117188 12.09375 -2.546875 C 11.800781 -1.984375 11.390625 -1.5 10.859375 -1.09375 C 10.328125 -0.6875 9.691406 -0.367188 8.953125 -0.140625 C 8.210938 0.0859375 7.394531 0.203125 6.5 0.203125 C 5.6875 0.203125 4.953125 0.09375 4.296875 -0.125 C 3.648438 -0.351562 2.984375 -0.71875 2.296875 -1.21875 L 1.890625 0 L 1.40625 0 Z M 1.09375 -5.1875 "/></g></g></g><g fill="#055c9d" fill-opacity="1"><g transform="translate(185.156831, 96.715368)"><g><path d="M 16.5625 -11.171875 L 15.6875 -11.171875 C 15.644531 -11.835938 15.546875 -12.390625 15.390625 -12.828125 C 15.234375 -13.265625 15.007812 -13.613281 14.71875 -13.875 C 14.4375 -14.144531 14.09375 -14.328125 13.6875 -14.421875 C 13.28125 -14.523438 12.804688 -14.578125 12.265625 -14.578125 C 11.742188 -14.578125 11.320312 -14.566406 11 -14.546875 C 10.675781 -14.535156 10.429688 -14.503906 10.265625 -14.453125 C 10.097656 -14.398438 9.988281 -14.332031 9.9375 -14.25 C 9.882812 -14.175781 9.859375 -14.078125 9.859375 -13.953125 L 9.859375 -3.3125 C 9.859375 -2.875 9.882812 -2.5 9.9375 -2.1875 C 10 -1.882812 10.125 -1.632812 10.3125 -1.4375 C 10.507812 -1.238281 10.789062 -1.085938 11.15625 -0.984375 C 11.519531 -0.878906 12 -0.820312 12.59375 -0.8125 L 12.59375 0 L 4.078125 0 L 4.078125 -0.8125 C 4.691406 -0.820312 5.179688 -0.878906 5.546875 -0.984375 C 5.910156 -1.085938 6.191406 -1.238281 6.390625 -1.4375 C 6.585938 -1.632812 6.710938 -1.882812 6.765625 -2.1875 C 6.828125 -2.5 6.859375 -2.875 6.859375 -3.3125 L 6.859375 -13.953125 C 6.859375 -14.078125 6.832031 -14.175781 6.78125 -14.25 C 6.738281 -14.332031 6.644531 -14.398438 6.5 -14.453125 C 6.351562 -14.503906 6.140625 -14.535156 5.859375 -14.546875 C 5.578125 -14.566406 5.21875 -14.578125 4.78125 -14.578125 C 4.289062 -14.578125 3.820312 -14.550781 3.375 -14.5 C 2.925781 -14.457031 2.53125 -14.320312 2.1875 -14.09375 C 1.851562 -13.875 1.582031 -13.535156 1.375 -13.078125 C 1.164062 -12.628906 1.050781 -11.992188 1.03125 -11.171875 L 0.25 -11.171875 L 0.453125 -15.640625 L 16.359375 -15.640625 Z M 16.5625 -11.171875 "/></g></g></g><g fill="#055c9d" fill-opacity="1"><g transform="translate(202.701004, 96.715368)"><g><path d="M 10.171875 -4.734375 L 4.421875 -4.734375 C 3.785156 -3.296875 3.46875 -2.300781 3.46875 -1.75 C 3.46875 -1.34375 3.617188 -1.082031 3.921875 -0.96875 C 4.234375 -0.863281 4.691406 -0.8125 5.296875 -0.8125 L 5.296875 0 L -0.265625 0 L -0.265625 -0.8125 C 0.0546875 -0.851562 0.335938 -0.90625 0.578125 -0.96875 C 0.816406 -1.039062 1.023438 -1.132812 1.203125 -1.25 C 1.390625 -1.375 1.550781 -1.535156 1.6875 -1.734375 C 1.820312 -1.929688 1.953125 -2.171875 2.078125 -2.453125 L 7.421875 -15.84375 L 8.921875 -15.84375 L 13.765625 -3.984375 C 14.054688 -3.296875 14.296875 -2.753906 14.484375 -2.359375 C 14.679688 -1.960938 14.890625 -1.660156 15.109375 -1.453125 C 15.335938 -1.242188 15.597656 -1.097656 15.890625 -1.015625 C 16.179688 -0.929688 16.554688 -0.867188 17.015625 -0.828125 L 17.015625 0 L 9.34375 0 L 9.34375 -0.828125 C 9.988281 -0.859375 10.453125 -0.925781 10.734375 -1.03125 C 11.023438 -1.144531 11.171875 -1.363281 11.171875 -1.6875 C 11.171875 -1.875 11.125 -2.113281 11.03125 -2.40625 C 10.9375 -2.707031 10.804688 -3.078125 10.640625 -3.515625 Z M 4.890625 -5.953125 L 9.734375 -5.953125 L 7.390625 -12.109375 L 7.3125 -12.109375 Z M 4.890625 -5.953125 "/></g></g></g><g fill="#055c9d" fill-opacity="1"><g transform="translate(219.879682, 96.715368)"><g><path d="M 14.703125 0 L 0.71875 0 L 0.71875 -0.8125 C 1.15625 -0.820312 1.515625 -0.859375 1.796875 -0.921875 C 2.085938 -0.992188 2.304688 -1.113281 2.453125 -1.28125 C 2.609375 -1.445312 2.710938 -1.675781 2.765625 -1.96875 C 2.816406 -2.269531 2.84375 -2.65625 2.84375 -3.125 L 2.84375 -12.515625 C 2.84375 -12.984375 2.816406 -13.363281 2.765625 -13.65625 C 2.722656 -13.945312 2.632812 -14.175781 2.5 -14.34375 C 2.363281 -14.519531 2.171875 -14.632812 1.921875 -14.6875 C 1.671875 -14.75 1.34375 -14.796875 0.9375 -14.828125 L 0.9375 -15.640625 L 7.9375 -15.640625 L 7.9375 -14.828125 C 7.476562 -14.816406 7.109375 -14.773438 6.828125 -14.703125 C 6.554688 -14.640625 6.34375 -14.519531 6.1875 -14.34375 C 6.039062 -14.164062 5.941406 -13.921875 5.890625 -13.609375 C 5.847656 -13.296875 5.828125 -12.882812 5.828125 -12.375 L 5.828125 -3.859375 C 5.828125 -3.285156 5.882812 -2.820312 6 -2.46875 C 6.113281 -2.113281 6.3125 -1.835938 6.59375 -1.640625 C 6.882812 -1.441406 7.265625 -1.304688 7.734375 -1.234375 C 8.210938 -1.160156 8.800781 -1.125 9.5 -1.125 C 10.289062 -1.125 10.945312 -1.171875 11.46875 -1.265625 C 12 -1.359375 12.441406 -1.535156 12.796875 -1.796875 C 13.160156 -2.054688 13.453125 -2.410156 13.671875 -2.859375 C 13.890625 -3.304688 14.070312 -3.890625 14.21875 -4.609375 L 15.03125 -4.609375 Z M 14.703125 0 "/></g></g></g></svg>